<svg width="783" height="166" viewBox="0 0 783 166" fill="none" xmlns="http://www.w3.org/2000/svg">
<path d="M426.68 146.76C426.68 150.216 425.016 151.88 421.56 151.88H413.88C410.424 151.88 408.76 150.216 408.76 146.76V63.56C408.76 60.104 410.424 58.44 413.88 58.44H421.56C425.016 58.44 426.68 60.104 426.68 63.56V68.296C431.16 63.56 437.56 61 444.6 61C459.448 61 471.608 73.928 471.608 93.768C471.608 113.864 457.528 126.536 439.48 126.536C435.128 126.536 430.904 126.024 426.68 125V146.76ZM439.48 108.104C447.672 108.104 453.688 103.368 453.688 93.768C453.688 85.448 448.696 79.56 440.888 79.56C431.928 79.56 426.68 85.704 426.68 96.584V106.184C430.52 107.464 434.616 108.104 439.48 108.104ZM518.282 119.88V115.4C513.418 122.952 505.354 126.536 498.186 126.536C485.77 126.536 476.554 118.472 476.554 99.912V66.12C476.554 62.664 478.218 61 481.674 61H489.354C492.81 61 494.474 62.664 494.474 66.12V94.152C494.474 103.496 498.186 107.976 504.33 107.976C512.778 107.976 518.282 102.728 518.282 90.952V61C518.282 57.544 519.946 55.88 523.402 55.88H531.082C534.538 55.88 536.202 57.544 536.202 61V119.88C536.202 123.336 534.538 125 531.082 125H523.402C519.946 125 518.282 123.336 518.282 119.88ZM563.7 119.88C563.7 123.336 562.036 125 558.58 125H550.26C546.804 125 545.14 123.336 545.14 119.88V37.96C545.14 34.504 546.804 32.84 550.26 32.84H558.58C562.036 32.84 563.7 34.504 563.7 37.96V119.88ZM570.913 80.072C570.913 68.296 579.873 59.464 594.977 59.464C601.761 59.464 610.593 61.256 616.097 65.352C618.145 66.888 617.505 68.68 616.609 70.728L613.921 77.384C613.025 79.56 611.105 80.456 609.185 79.688C603.041 77.256 598.433 75.72 593.185 75.72C589.857 75.72 588.193 76.872 588.193 79.176C588.193 88.392 619.425 80.84 619.425 104.008C619.425 120.648 606.241 126.536 594.337 126.536C586.017 126.536 577.185 124.488 571.169 119.624C569.121 117.96 569.889 116.296 570.657 114.248L573.217 107.08C573.985 104.904 576.033 103.624 577.953 104.776C582.177 107.08 588.961 109.64 595.361 109.64C599.585 109.64 602.145 108.744 602.145 106.184C602.145 96.968 570.913 104.008 570.913 80.072ZM655.359 126.536C635.007 126.536 621.823 112.84 621.823 93C621.823 74.696 632.703 59.464 653.951 59.464C670.463 59.464 681.599 70.6 681.599 88.392C681.599 93.512 681.087 95.688 676.607 96.2L640.895 100.296C643.455 105.928 649.087 109.896 657.791 109.896C662.655 109.896 668.159 106.952 672.511 104.52C674.431 103.368 676.351 104.392 677.247 106.824L679.807 113.48C680.703 115.912 681.343 117.192 679.295 118.856C673.023 123.848 663.551 126.536 655.359 126.536ZM652.671 76.104C646.015 76.104 641.663 79.048 640.127 86.472L663.167 83.784C662.015 79.176 658.175 76.104 652.671 76.104Z" fill="#7B5573"/>
<path d="M364 69L340 11" stroke="url(#paint0_linear_17_105)" stroke-width="21" stroke-linecap="round"/>
<path d="M212 92H265" stroke="#CD9BC2" stroke-width="20" stroke-linecap="round"/>
<path d="M414 69L364 69" stroke="#7B5573" stroke-width="21" stroke-linecap="round"/>
<path d="M295 146L340 11" stroke="url(#paint1_linear_17_105)" stroke-width="21" stroke-linecap="round"/>
<path d="M295 146L265 92" stroke="url(#paint2_linear_17_105)" stroke-width="21" stroke-linecap="round"/>
<path d="M23.125 121.25C23.125 124.625 21.5 126.25 18.125 126.25H10.625C7.25 126.25 5.625 124.625 5.625 121.25V40C5.625 36.625 7.25 35 10.625 35H18.125C21.5 35 23.125 36.625 23.125 40V44.625C27.5 40 33.75 37.5 40.625 37.5C55.125 37.5 67 50.125 67 69.5C67 89.125 53.25 101.5 35.625 101.5C31.375 101.5 27.25 101 23.125 100V121.25ZM35.625 83.5C43.625 83.5 49.5 78.875 49.5 69.5C49.5 61.375 44.625 55.625 37 55.625C28.25 55.625 23.125 61.625 23.125 72.25V81.625C26.875 82.875 30.875 83.5 35.625 83.5ZM81.4551 31.375C75.7051 31.375 70.8301 26.5 70.8301 20.625C70.8301 14.875 75.7051 10 81.4551 10C87.2051 10 92.0801 14.875 92.0801 20.625C92.0801 26.5 87.2051 31.375 81.4551 31.375ZM90.2051 95C90.2051 98.375 88.5801 100 85.2051 100H77.7051C74.3301 100 72.7051 98.375 72.7051 95V45C72.7051 41.625 74.3301 40 77.7051 40H85.2051C88.5801 40 90.2051 41.625 90.2051 45V95ZM116.514 97.5C116.514 100.875 114.889 102.5 111.514 102.5H104.014C100.639 102.5 99.0137 100.875 99.0137 97.5V37.5C99.0137 34.125 100.639 32.5 104.014 32.5H111.514C114.889 32.5 116.514 34.125 116.514 37.5V46.875C121.264 39.5 129.139 36 136.139 36C148.264 36 157.264 43.875 157.264 62V95C157.264 98.375 155.639 100 152.264 100H144.764C141.389 100 139.764 98.375 139.764 95V67.625C139.764 58.5 136.139 54.125 130.139 54.125C121.889 54.125 116.514 59.25 116.514 70.75V97.5ZM211.117 101.25C206.992 102.125 206.492 101.25 203.617 96.5L189.617 73.25L182.617 79.625V95C182.617 98.375 180.992 100 177.617 100H170.117C166.742 100 165.117 98.375 165.117 95V17.5C165.117 14.125 166.742 12.5 170.117 12.5H177.617C180.992 12.5 182.617 14.125 182.617 17.5V55.625L204.742 35.25C206.867 33.375 208.992 32.375 211.492 34.875L217.242 40.5C219.617 42.875 220.367 45 217.992 47.125L201.992 61.875L219.992 93.125C222.367 97.125 221.117 99.25 216.617 100.125L211.117 101.25Z" fill="#CD9BC2"/>
<circle cx="295.5" cy="146.5" r="10.5" fill="#7B5573"/>
<defs>
<linearGradient id="paint0_linear_17_105" x1="338.065" y1="2.95881" x2="364.467" y2="68.8128" gradientUnits="userSpaceOnUse">
<stop stop-color="#CD9BC2"/>
<stop offset="0.9998" stop-color="#7B5573"/>
<stop offset="0.9999" stop-color="#CD9BC2" stop-opacity="0.244792"/>
</linearGradient>
<linearGradient id="paint1_linear_17_105" x1="347.078" y1="-6.16466" x2="292.423" y2="145.069" gradientUnits="userSpaceOnUse">
<stop stop-color="#CD9BC2"/>
<stop offset="0.9998" stop-color="#7B5573"/>
<stop offset="0.9999" stop-color="#CD9BC2" stop-opacity="0.244792"/>
</linearGradient>
<linearGradient id="paint2_linear_17_105" x1="262.22" y1="84.3466" x2="295.464" y2="145.749" gradientUnits="userSpaceOnUse">
<stop stop-color="#CD9BC2"/>
<stop offset="0.9998" stop-color="#7B5573"/>
<stop offset="0.9999" stop-color="#CD9BC2" stop-opacity="0.244792"/>
</linearGradient>
</defs>
</svg>
